<svg xmlns="http://www.w3.org/2000/svg" viewBox="0 0 404.33 91.41"><path d="m20.6 53-5 18.1H0l19.9-65a5.27 5.27 0 0 1 5.3-4h14.4a5.19 5.19 0 0 1 5.3 4l19.9 65H49.3l-5-18.1zm14.6-32.9c-.5-2.1-1.1-4.4-1.4-6.5h-2.7c-.5 2.1-1 4.4-1.5 6.5l-5.8 21.1H41zm48.9 9c6.9-5.6 14.1-8.7 21.1-8.7 9 0 13.8 4.8 13.8 13.7v37h-14.7V38.7c0-4.5-1.2-5.8-4.8-5.8-4 0-7.9 1.6-13.7 4.5v33.7H71V21.8h12zm94 42h-11.7l-1.2-7.2a24.09 24.09 0 0 1-18.8 8.4c-12.6 0-17.5-9.5-17.5-26.3 0-19.7 6.5-25.6 18.9-25.6a28.37 28.37 0 0 1 16 4.4c-.3-3.3-.5-6.8-.5-10.3V1.1h14.8zm-14.8-37.8c-3.5-1-6.5-1.9-10.5-1.9-6.3 0-8.7 2.1-8.7 14.5 0 11.8 2.4 14.2 8.2 14.2 4.4 0 6.8-1.3 11-4zm60.9.8h-4c-4.2 0-8.5 1.2-15.1 3.4v33.6h-14.8V21.8h11.5l1.3 7.2c6.6-5.6 13.6-8.6 20-8.6h2.6zM243.8 0c2.9 0 4.3 1.5 4.3 4.3v5.4c0 2.9-1.4 4.3-4.3 4.3h-6.6c-2.9 0-4.3-1.4-4.3-4.3V4.3c0-2.8 1.4-4.3 4.3-4.3zm-10.6 71.1V21.8h14.7v49.3zm59 .7c-3.3 9.6-11 21.3-27.2 19.4l-1.2-8.7c8.1-2.1 12.2-5.4 14.7-11l.2-.4h-2.8a4.92 4.92 0 0 1-4.8-3.6L255 21.8h15.8l9.2 31.9c.6 2.4 1.1 4.9 1.5 7.4h1.3c.7-2.5 1.4-5.3 2-7.4l9.1-31.9h15.8zM395.9 2.1c3.7 0 5.6 2 5.7 5.7l2.7 63.3h-14.4L387.6 14h-1.7l-10.4 42.7c-.7 3.3-2.8 4.9-6.2 4.9h-10c-3.4 0-5.5-1.6-6.2-4.9L342.6 14h-1.7l-2 57.1h-14.4L327 7.8c.2-3.7 2-5.7 5.7-5.7h14.7c3.3 0 5.3 1.7 6 4.9l8.4 34.4c.8 3.3 1.3 6.5 1.8 9.7h1.3c.6-3.2 1.1-6.4 1.8-9.7L375 7c.8-3.2 2.8-4.9 6.2-4.9z" fill="#fff" /></svg>